<?xml version="1.0" encoding="UTF-8" standalone="no"?><svg xmlns="http://www.w3.org/2000/svg" viewBox="0 0 408 160" height="160" width="408"><defs><clipPath id="a"><path d="M360 360h571.7v455.05H360z"/></clipPath></defs><text style="-inkscape-font-specification:Constantia" transform="matrix(1.33333 0 0 1.33333 129.73 109.75)" font-weight="400" font-size="63" font-family="Constantia" fill="#3f51b5"><tspan y="0" x="0 41.013 76.041 123.354">CLDQ</tspan></text><g clip-path="url(#a)" transform="matrix(.13333 0 0 -.13333 0 160)"><path d="M376.93 385.26l531.86-.05-2.45 393.38-45.58 28.89-77.67.18-98-22.34-42.52-19.59-86.15 28.16-33.86 14.1-68.34.9-60.78-12.46-21.46-22.22z" fill="#fff"/><path d="M376.93 385.26l531.86-.05-2.45 393.38-45.58 28.89-77.67.18-98-22.34-42.52-19.59-86.15 28.16-33.86 14.1-68.34.9-60.78-12.46-21.46-22.22z" fill="none" stroke="#000" stroke-width="1.7" stroke-linecap="square" stroke-miterlimit="10"/><path d="M914.69 782.89v6.65l-2.62 2.04C854.6 836.42 716.12 809.8 646 771.76h-.22c-70.2 38.04-208.69 64.66-266.14 19.82l-2.62-2.04v-6.57c-6.56-1.19-17.02-4.18-17.02-11.2V375.3h243.04c9.17-9.22 24.9-15.31 42.81-15.31 17.9 0 33.64 6.09 42.81 15.31H931.7v396.45c0 6.8-10.46 9.85-17.01 11.13zM639.04 415.6c-35.34 15.07-86.1 28.73-129.95 33.46a377.11 377.11 0 0 1-40.35 2.3c-31.95 0-58.7-4.81-78.11-14.17v345.6c53.09 37.43 183.01 11.11 248.41-22.78zm262.03 21.59c-27.12 13.05-68.5 17.27-118.45 11.9-43.85-4.73-94.62-18.39-129.96-33.46V760c65.4 33.88 195.33 60.15 248.41 22.8z"/><path d="M674.78 727.52v-24.59c69.47 28.08 153.98 50.37 204.17 14.76v24.62c-42.24 29.74-136.11 15.55-204.17-14.79zM674.78 543.76v-24.58c69.47 28.07 153.98 50.36 204.17 14.75v24.62c-42.24 29.74-136.11 15.55-204.17-14.79zM674.78 605.02v-24.59c69.47 28.07 153.98 50.36 204.17 14.75v24.62c-42.24 29.74-136.11 15.55-204.17-14.78zM674.78 666.27v-24.59c69.47 28.08 153.98 50.37 204.17 14.75v24.63c-42.24 29.74-136.11 15.55-204.17-14.79zM674.78 482.5v-24.58c69.47 28.08 153.98 50.36 204.17 14.75v24.62c-42.24 29.74-136.11 15.55-204.17-14.78zM412.75 717.72c50.2 35.61 134.7 13.32 204.18-14.75v24.55c-68.06 30.3-161.93 44.5-204.18 14.75zM412.75 558.55v-24.59c50.2 35.61 134.7 13.32 204.18-14.75v24.55C548.87 574.1 455 588.3 412.75 558.55zM412.75 619.8v-24.58c50.2 35.6 134.7 13.32 204.18-14.76v24.56C548.87 635.35 455 649.54 412.75 619.8zM412.75 681.05v-24.58c50.2 35.6 134.7 13.32 204.18-14.76v24.56C548.87 696.6 455 710.8 412.75 681.05zM412.75 497.3v-24.6c50.2 35.62 134.7 13.33 204.18-14.75v24.56c-68.06 30.33-161.93 44.52-204.18 14.78z"/><path d="M372.52 421.42l-.78 287.59 9.06 77.96z" fill="none" stroke="#000" stroke-width="1.7" stroke-linecap="square" stroke-miterlimit="10"/></g></svg>