<?xml version="1.0" encoding="UTF-8"?>
<!-- Created with EazyDraw for Mac ( http://www.eazydraw.com/ ) -->

<svg
    version="1.1"
    xmlns:dc="http://purl.org/dc/elements/1.1/"
    xmlns:cc="http://creativecommons.org/ns#"
    xmlns:rdf="http://www.w3.org/1999/02/22-rdf-syntax-ns#"
    xmlns:svg="http://www.w3.org/2000/svg"
    xmlns:xlink="http://www.w3.org/1999/xlink"
    xmlns="http://www.w3.org/2000/svg"
    width="336"
    height="268.479713692"
    viewBox="0, 0, 336, 268.479713692"
    preserveAspectRatio="none"
    id="svg2">
   <defs
       id="defs_7595FC73"/>
   <metadata
       id="metadata7">
      <rdf:RDF>
         <cc:Work
             rdf:about="">
            <dc:format>image/svg+xml</dc:format>
            <dc:type rdf:resource="http://purl.org/dc/dcmitype/StillImage"/>
            <dc:title></dc:title>
         </cc:Work>
      </rdf:RDF>
   </metadata>
   <g
       id="layer_Paper"
       style="fill:#000000;fill-opacity:1;stroke:#000000;stroke-opacity:1;fill-rule:nonzero;stroke-linecap:square;stroke-linejoin:miter;stroke-width:1;stroke-miterlimit:10">
      <polygon
          style="fill:#FFFFFF"
          id="51AFA673"
          points="9.953125,253.633578307 322.53125,253.664856376 321.09765625,22.4651908629 294.30859375,5.489018987936 248.66015625,5.379545746918 191.05859375,18.5085151519 166.07421875,30.0227542518 115.44140625,13.4766558236 95.5390625,5.187967575136 55.37109375,4.65233064587 19.65234375,11.9792182769 7.04296875,25.0378120269"/>
      <path
          style="stroke:none"
          id="062D6D43"
          d="M326,19.9397136923 L326,16.0297136923 L324.46,14.8297136923 C290.69,-11.5202863077 209.3,4.119713692277 168.09,26.4797136923 L168.09,26.4797136923 L167.96,26.4797136923 L167.96,26.4797136923 C126.7,4.119713692277 45.31,-11.5202863077 11.54,14.8297136923
L10,16.0297136923 L10,19.8897136923 C6.15,20.5897136923 0,22.3497136923 0,26.4797136923 L0,26.4797136923 L0,259.479713692 L142.84,259.479713692 C148.23,264.899713692 157.48,268.479713692 168,268.479713692
C178.52,268.479713692 187.77,264.899713692 193.16,259.479713692 L336,259.479713692 L336,26.4797136923 C336,22.4797136923 329.85,20.6897136923 326,19.9397136923 z M164,235.799713692 C143.23,226.939713692 113.39,218.909713692 87.62,216.129713692
C79.7465390928,215.2555131 71.8318041378,214.804863915 63.91,214.779713692 C45.13,214.779713692 29.41,217.609713692 18,223.109713692 L18,19.9897136923 C49.2,-2.010286307723 125.56,13.4597136923 164,33.3797136923
z M318,223.109713692 C302.06,215.439713692 277.74,212.959713692 248.38,216.109713692 C222.61,218.889713692 192.77,226.919713692 172,235.779713692 L172,33.3897136923 C210.44,13.4797136923 286.8,-1.960286307723 318,19.9897136923
z"/>
      <path
          style="stroke:none"
          id="192D6D43"
          d="M185,52.4797136923 L185,66.9297136923 C225.83,50.4297136923 275.5,37.3297136923 305,58.2597136923 L305,43.7897136923 C280.17,26.3097136923 225,34.6497136923 185,52.4797136923 z"/>
      <path
          style="stroke:none"
          id="4B2D6D43"
          d="M185,160.479713692 L185,174.929713692 C225.83,158.429713692 275.5,145.329713692 305,166.259713692 L305,151.789713692 C280.17,134.309713692 225,142.649713692 185,160.479713692 z"/>
      <path
          style="stroke:none"
          id="4D2D6D43"
          d="M185,124.479713692 L185,138.929713692 C225.83,122.429713692 275.5,109.329713692 305,130.259713692 L305,115.789713692 C280.17,98.3097136923 225,106.649713692 185,124.479713692 z"/>
      <path
          style="stroke:none"
          id="3F2D6D43"
          d="M185,88.4797136923 L185,102.929713692 C225.83,86.4297136923 275.5,73.3297136923 305,94.2597136923 L305,79.7897136923 C280.17,62.3097136923 225,70.6497136923 185,88.4797136923 z"/>
      <path
          style="stroke:none"
          id="613D6D43"
          d="M185,196.479713692 L185,210.929713692 C225.83,194.429713692 275.5,181.329713692 305,202.259713692 L305,187.789713692 C280.17,170.309713692 225,178.649713692 185,196.479713692 z"/>
      <path
          style="stroke:none"
          id="933D6D43"
          d="M31,58.2397136923 C60.5,37.3097136923 110.17,50.4097136923 151,66.9097136923 L151,52.4797136923 C111,34.6697136923 55.83,26.3297136923 31,43.8097136923 z"/>
      <path
          style="stroke:none"
          id="263D6D43"
          d="M31,151.789713692 L31,166.239713692 C60.5,145.309713692 110.17,158.409713692 151,174.909713692 L151,160.479713692 C111,142.649713692 55.83,134.309713692 31,151.789713692 z"/>
      <path
          style="stroke:none"
          id="1A3D6D43"
          d="M31,115.789713692 L31,130.239713692 C60.5,109.309713692 110.17,122.409713692 151,138.909713692 L151,124.479713692 C111,106.649713692 55.83,98.3097136923 31,115.789713692 z"/>
      <path
          style="stroke:none"
          id="FB3D6D43"
          d="M31,79.7897136923 L31,94.2397136923 C60.5,73.3097136923 110.17,86.4097136923 151,102.909713692 L151,88.4797136923 C111,70.6497136923 55.83,62.3097136923 31,79.7897136923 z"/>
      <path
          style="stroke:none"
          id="DD3D6D43"
          d="M31,187.789713692 L31,202.239713692 C60.5,181.309713692 110.17,194.409713692 151,210.909713692 L151,196.479713692 C111,178.649713692 55.83,170.309713692 31,187.789713692 z"/>
      <polygon
          style="fill:none"
          id="C54A6073"
          points="7.359375,232.380130515 6.8984375,63.3612659004 12.2265625,17.5428047757"/>
   </g>
</svg>
