<?xml version="1.0" standalone="no"?>
<!DOCTYPE svg PUBLIC "-//W3C//DTD SVG 20010904//EN"
 "http://www.w3.org/TR/2001/REC-SVG-20010904/DTD/svg10.dtd">
<svg version="1.0" xmlns="http://www.w3.org/2000/svg"
 width="620.000000pt" height="620.000000pt" viewBox="0 0 620.000000 620.000000"
 preserveAspectRatio="xMidYMid meet">
<metadata>
Created by potrace 1.11, written by Peter Selinger 2001-2013
</metadata>
<g transform="translate(0.000000,620.000000) scale(0.100000,-0.100000)"
fill="#000000" stroke="none">
<path d="M1032 5479 c-274 -21 -512 -94 -689 -212 -58 -38 -63 -45 -63 -78 0
-35 -1 -36 -59 -52 -34 -10 -71 -28 -90 -46 l-31 -29 0 -2096 0 -2096 1276 0
1275 0 37 -29 c103 -83 241 -125 412 -125 167 0 310 43 412 125 l37 29 1275 0
1276 0 0 2091 c0 1419 -3 2097 -10 2110 -12 22 -65 51 -127 69 -40 12 -43 15
-43 49 0 33 -5 40 -63 78 -190 127 -416 192 -740 214 -543 38 -1294 -111
-1852 -368 -77 -36 -147 -67 -156 -70 -9 -2 -47 11 -85 30 -563 283 -1394 452
-1992 406z m508 -150 c260 -24 662 -107 940 -195 135 -42 388 -141 480 -187
l65 -32 3 -1808 c1 -994 1 -1807 -1 -1807 -2 0 -84 29 -184 65 -861 308 -1748
387 -2292 205 -66 -22 -123 -40 -126 -40 -3 0 -5 814 -5 1809 l0 1810 30 21
c47 33 169 87 251 110 233 64 502 80 839 49z m3573 11 c278 -19 512 -82 640
-172 l27 -19 0 -1810 c0 -995 -2 -1809 -5 -1809 -3 0 -60 18 -126 40 -550 184
-1456 100 -2321 -215 -83 -30 -152 -55 -154 -55 -2 0 -4 812 -4 1804 l0 1804
24 16 c47 31 313 139 471 191 370 123 827 211 1190 228 33 2 71 4 85 5 14 1
92 -3 173 -8z"/>
<path d="M1150 4883 c-144 -15 -293 -55 -395 -105 -97 -47 -95 -45 -95 -175 0
-74 4 -113 11 -113 6 0 29 11 53 25 72 42 187 86 296 112 130 31 388 42 562
24 282 -29 648 -123 1021 -262 87 -32 165 -59 173 -59 11 0 14 23 14 119 l0
118 -72 33 c-188 84 -602 205 -835 245 -221 37 -569 56 -733 38z"/>
<path d="M1146 4240 c-154 -18 -301 -57 -400 -107 -87 -43 -86 -42 -86 -168 0
-61 2 -114 5 -117 3 -2 53 19 113 48 416 206 1031 152 1867 -165 72 -27 134
-46 138 -42 4 4 6 59 5 122 l-3 114 -47 23 c-231 110 -681 233 -1013 277 -143
19 -468 27 -579 15z"/>
<path d="M1190 3600 c-189 -16 -332 -53 -455 -118 l-70 -37 -3 -109 c-1 -61 0
-116 3 -124 4 -11 19 -6 68 21 207 115 486 163 787 138 319 -28 698 -123 1109
-278 83 -31 148 -50 153 -45 5 5 7 60 6 123 l-3 114 -88 37 c-213 92 -572 195
-817 237 -233 40 -513 56 -690 41z"/>
<path d="M1085 2946 c-117 -17 -231 -49 -319 -90 -107 -49 -106 -48 -106 -182
0 -63 4 -114 9 -114 5 0 42 18 83 39 407 219 1065 165 1896 -155 63 -24 120
-44 128 -44 11 0 14 24 14 120 l0 120 -57 26 c-253 112 -645 221 -973 270
-143 21 -555 28 -675 10z"/>
<path d="M1125 2309 c-119 -14 -269 -54 -355 -95 -113 -54 -110 -48 -110 -181
0 -63 4 -113 9 -113 5 0 49 20 98 44 409 206 1016 158 1829 -144 89 -33 169
-60 178 -60 15 0 16 13 14 118 l-3 117 -55 27 c-219 105 -665 228 -990 273
-138 19 -503 28 -615 14z"/>
<path d="M4560 4879 c-326 -34 -748 -142 -1053 -269 l-92 -38 -3 -121 c-2
-101 0 -121 12 -121 8 0 92 29 188 64 300 112 565 185 837 233 139 24 181 28
381 28 179 0 241 -4 305 -18 124 -27 212 -57 304 -104 46 -24 88 -43 92 -43 5
0 9 51 9 113 0 130 2 127 -95 175 -92 46 -214 80 -341 97 -125 16 -402 18
-544 4z"/>
<path d="M4595 4239 c-247 -23 -576 -93 -830 -177 -139 -46 -323 -118 -342
-134 -15 -12 -19 -233 -5 -242 5 -3 67 17 138 45 181 69 401 140 589 187 558
142 960 135 1277 -22 60 -29 110 -50 113 -48 3 3 5 56 5 117 0 126 1 125 -85
167 -73 37 -198 75 -300 93 -109 20 -419 27 -560 14z"/>
<path d="M4648 3600 c-244 -18 -510 -68 -772 -147 -153 -45 -361 -120 -428
-154 l-38 -19 0 -115 c0 -62 4 -116 9 -120 5 -3 74 19 153 49 203 76 377 131
573 181 568 144 979 135 1298 -30 64 -33 89 -41 93 -32 2 7 3 62 2 123 l-3
109 -70 37 c-187 99 -485 142 -817 118z"/>
<path d="M4510 2944 c-328 -39 -767 -156 -1042 -278 l-58 -26 0 -120 c0 -96 3
-120 14 -120 8 0 72 22 142 49 838 317 1478 368 1882 150 41 -21 78 -39 83
-39 5 0 9 51 9 114 0 135 1 133 -109 184 -88 40 -222 76 -346 91 -121 15 -433
12 -575 -5z"/>
<path d="M4543 2304 c-334 -36 -746 -142 -1045 -269 l-88 -37 0 -119 c0 -140
-6 -135 115 -88 333 129 687 228 983 275 136 21 416 29 525 15 175 -23 336
-75 447 -142 24 -15 48 -25 52 -23 4 3 8 56 8 118 0 132 3 127 -110 180 -199
95 -536 129 -887 90z"/>
</g>
</svg>
