<?xml version="1.0" encoding="UTF-8"?>
<!-- Created with EazyDraw for Mac ( http://www.eazydraw.com/ ) -->

<svg
    version="1.1"
    xmlns:dc="http://purl.org/dc/elements/1.1/"
    xmlns:cc="http://creativecommons.org/ns#"
    xmlns:rdf="http://www.w3.org/1999/02/22-rdf-syntax-ns#"
    xmlns:svg="http://www.w3.org/2000/svg"
    xmlns:xlink="http://www.w3.org/1999/xlink"
    xmlns="http://www.w3.org/2000/svg"
    width="330.756010562"
    height="103"
    viewBox="0, 0, 330.756010562, 103"
    preserveAspectRatio="none"
    id="svg2">
   <defs
       id="defs_882E55F3">
      <clipPath
          id="D0AD8AE3_clip">
         <path
             d="M0,82.2512 L76.224761,82.2512 L76.224761,21.5793835 L0,21.5793835 z"
             clip-rule="nonzero"/>
      </clipPath>
   </defs>
   <metadata
       id="metadata7">
      <rdf:RDF>
         <cc:Work
             rdf:about="">
            <dc:format>image/svg+xml</dc:format>
            <dc:type rdf:resource="http://purl.org/dc/dcmitype/StillImage"/>
            <dc:title></dc:title>
         </cc:Work>
      </rdf:RDF>
   </metadata>
   <g
       id="layer_Paper"
       style="fill:#000000;fill-opacity:1;stroke:#000000;stroke-opacity:1;fill-rule:nonzero;stroke-linecap:square;stroke-linejoin:miter;stroke-width:1;stroke-miterlimit:10">
      <g
          id="682E55F3">
         <path
             style="fill:#3F51B5;stroke:none"
             id="6F1E55F3"
             d="M130.047485459,36.8926858936 C129.500611826,36.9747169385 128.953738193,37.0567479834 128.406864561,37.1387790283 C127.408820181,33.5430848926 126.410775801,29.9473907568 125.412731421,26.3516966211 C122.022097944,25.504038252 118.945964521,25.0802154248 116.184238867,25.0802154248
C109.485003369,25.0802154248 104.22139729,27.4180768262 100.39326272,32.0938697656 C96.5651281495,36.769662705 94.6510895752,42.8398993263 94.6510895752,50.3047617383 C94.6510895752,58.2891566991 96.8385622315,64.6601708106 101.213573169,69.4179952051
C105.588584106,74.1758195995 111.645149024,76.5546961133 119.383449619,76.5546961133 C123.731116738,76.5546961133 128.311137612,75.7207221631 133.123649644,74.0527492432 C133.274039893,74.6679820801 133.424430142,75.283214917 133.574820391,75.8984477539
C128.188088174,79.6172070507 122.090508144,81.4765588086 115.281897373,81.4765588086 C106.449844043,81.4765588086 99.326886206,78.7832331005 93.9128101709,73.3965008838 C88.4987341358,68.0097686671 85.7917367236,60.9141542382 85.7917367236,52.1094447266
C85.7917367236,42.7305150294 88.7721682178,35.3067797021 94.7331206201,29.8380160303 C100.694073022,24.3692523585 108.48694436,21.6349115381 118.111968423,21.6349115381 C122.733073726,21.6349115381 127.463483345,22.1954514063 132.303339194,23.316547959
C132.39904208,23.4259226855 132.494744966,23.5352974121 132.590447852,23.6446721387 z"/>
         <path
             style="fill:#3F51B5;stroke:none"
             id="312E55F3"
             d="M154.73882998,33.9805837988 C154.73882998,45.0957903857 154.73882998,56.2109969727 154.73882998,67.3262035596 C154.73882998,70.3613673974 154.766173389,73.3554705957 154.820861025,76.3086029785 C161.479047505,76.3086029785 168.137233984,76.3086029785 174.795420464,76.3086029785
C176.545416089,72.6855651611 178.295411714,69.0625273437 180.045407339,65.4394895264 C180.660640176,65.3437866406 181.275873013,65.2480837549 181.89110585,65.1523808691 C181.590325352,70.0468998828 181.289544854,74.9414188965 180.988764355,79.8359379102
C180.906733311,79.9316407959 180.824702266,80.0273436816 180.742671221,80.1230465674 C173.660622266,80.0410151123 167.111876001,80 161.096235962,80 C157.664603916,80 154.23297187,80 150.801339824,80 C147.492737803,80 144.102155186,80.0410151123 140.629490254,80.1230465674
C140.574802891,79.5351574121 140.520115527,78.9472682568 140.465428164,78.3593791016 C142.147064585,77.8535209912 143.828701006,77.3476628809 145.510337427,76.8418047705 C146.193932886,76.650398042 146.563068896,76.2265752148 146.617756533,75.5703235742
C146.645100352,74.4765708399 146.665607908,73.2529533227 146.679279817,71.899434314 C146.692951726,70.5459153052 146.699787578,69.048863706 146.699787578,67.4082346045 C146.699787578,56.3203716992 146.699787578,45.2325087939 146.699787578,34.1446458887
C146.699787578,32.7501111524 146.692951726,31.492314375 146.679279817,30.3712178223 C146.665607908,29.2501212695 146.645100352,28.238415166 146.617756533,27.3360691602 C146.590412715,26.6251298828 146.262291816,26.1602919434 145.633383994,25.9415413965
C143.938075732,25.4083396045 142.242767471,24.8751378125 140.547459209,24.3419360205 C140.520115527,23.7540468652 140.492771846,23.16615771 140.465428164,22.5782685547 C143.992780732,22.6876438281 147.38336335,22.7423306445 150.637277734,22.7423306445
C153.918535937,22.7423306445 157.309118555,22.6876438281 160.809127305,22.5782685547 C160.863814668,23.16615771 160.918502031,23.7540468652 160.973189395,24.3419360205 C159.277881133,24.8477941309 157.582572871,25.3536522412 155.887264609,25.8595103516
C155.231012969,26.0235732617 154.875548662,26.4473960889 154.820861025,27.1309915479 C154.793517207,28.0880251904 154.773009651,29.4825390088 154.759337742,31.3145748389 C154.745665833,33.1466106689 154.73882998,34.0352714355 154.73882998,33.9805837988
z"/>
         <path
             style="fill:#3F51B5;stroke:none"
             id="032E55F3"
             d="M197.477004385,80 C194.168402363,80 190.777819746,80.0410151123 187.305154814,80.1230465674 C187.250467451,79.5351574121 187.195780088,78.9472682568 187.141092725,78.3593791016 C188.822729146,77.8535209912 190.504365566,77.3476628809 192.186001987,76.8418047705
C192.896941265,76.6230542236 193.266077275,76.1992313965 193.293421094,75.5703235742 C193.320764912,74.4765708399 193.341272468,73.2529533227 193.354944377,71.899434314 C193.368616287,70.5459153052 193.375452139,69.048863706 193.375452139,67.4082346045
C193.375452139,56.3203716992 193.375452139,45.2325087939 193.375452139,34.1446458887 C193.375452139,32.7501111524 193.368616287,31.492314375 193.354944377,30.3712178223 C193.341272468,29.2501212695 193.320764912,28.238415166 193.293421094,27.3360691602
C193.266077275,26.6251298828 192.937956377,26.1602919434 192.309048555,25.9415413965 C190.613740293,25.4083396045 188.918432031,24.8751378125 187.22312377,24.3419360205 C187.195780088,23.7540468652 187.168436406,23.16615771 187.141092725,22.5782685547
C190.668445293,22.6876438281 194.100043023,22.7423306445 197.435988862,22.7423306445 C200.170370698,22.7423306445 202.80900959,22.673972124 205.351984697,22.5372530322 C207.894959805,22.4005339404 210.506255288,22.3321754199 213.185949487,22.3321754199
C222.756285913,22.3321754199 229.947602271,24.5128122242 234.760114302,28.8741512524 C239.572626333,33.2354902807 241.978846255,39.709042173 241.978846255,48.2950011377 C241.978846255,58.4122139305 239.306028103,66.2666079371 233.960311614,71.8584187915
C228.614595125,77.4502296459 221.115665425,80.2460931348 211.463297544,80.2460931348 C208.810947163,80.2460931348 206.445742353,80.2050780225 204.367612158,80.1230465674 C202.289481963,80.0410151123 199.992635674,80 197.477004385,80
z M201.414494541,76.349618501 C203.027779824,76.5683690478 204.606861648,76.7119219409 206.151787385,76.7802814868 C207.696713123,76.8486410327 209.248451538,76.882820293 210.807049185,76.882820293 C218.025817231,76.882820293 223.52184228,74.7568703051 227.295289214,70.5049065503
C231.068736147,66.2529427955 232.955431313,59.7383757909 232.955431313,50.9610100977 C232.955431313,42.4297387696 231.164438076,36.1065756225 227.582397871,31.9913309595 C224.000357666,27.8760862964 218.326600464,25.8184948291 210.56095605,25.8184948291
C209.330484224,25.8184948291 207.970149666,25.8458382373 206.479911565,25.900525874 C204.989673464,25.9552135107 203.301218008,26.0509154395 201.414494541,26.1876345313 z"/>
         <path
             style="fill:#3F51B5;stroke:none"
             id="F42E55F3"
             d="M309.695473838,50.0586686035 C309.695473838,58.9727533886 307.371284141,66.1709055982 302.72283502,71.6533411792 C298.074385898,77.1357767602 291.976805869,80.3007762598 284.429912002,81.1484346289 C286.672105107,87.4922004882 292.386877422,90.6640358398 301.574400391,90.6640358398
C305.320503506,90.6640358398 308.656399307,90.0898242676 311.582187871,88.9413838965 C311.73257812,89.5566167334 311.882968369,90.1718495703 312.033358618,90.7870824072 C306.373188218,95.2988124365 301.916212681,97.5546436133 298.662298296,97.5546436133
C288.326334956,97.5546436133 281.722901875,92.2090073094 278.851800947,81.5175743311 C269.828340889,81.4902305127 262.814756685,78.8310840649 257.810837925,73.5400552124 C252.806919165,68.2490263599 250.304997314,61.0508741503 250.304997314,51.9453826367
C250.304997314,42.5117653029 253.005158875,35.0333431591 258.405563,29.5098918506 C263.805967126,23.9864405421 271.291225122,21.2247563135 280.861561548,21.2247563135 C290.049084516,21.2247563135 297.151534797,23.7950366846 302.169125466,28.9356745361
C307.186716135,34.0763123876 309.695473838,41.1172400001 309.695473838,50.0586686035 z M259.287396733,50.5918703955 C259.287396733,59.5059551806 261.092061675,66.3349713795 264.701445698,71.0791238647 C268.310829722,75.82327635 273.601779209,78.1953170117 280.574452891,78.1953170117
C287.437751299,78.1953170117 292.503117668,76.0420236157 295.770703962,71.7353722241 C299.038290256,67.4287208326 300.672058896,60.6680631542 300.672058896,51.4531963672 C300.672058896,42.8125497657 298.935752476,36.1681015722 295.463087544,31.5196524512
C291.990422612,26.8712033301 286.631114604,24.5470136328 279.385002739,24.5470136328 C272.357641421,24.5470136328 267.251259939,26.7003070289 264.0657051,31.0069584204 C260.880150261,35.313609812 259.287396733,41.8418485206 259.287396733,50.5918703955
z"/>
      </g>
      <g
          id="D0AD8AE3"
          clip-path="url(#D0AD8AE3_clip)">
         <g
             id="058D8AE3">
            <polyline
                style="fill:#F0F0F0;stroke:none"
                id="0A8D8AE3"
                points="2.2572769,78.8832842 73.1701707,78.8899507 72.8435122,26.4405953 66.7663308,22.5886916 56.4105897,22.5646922 43.3442497,25.5432844 37.6750581,28.1552191 26.1886786,24.4006463 21.6741248,22.5206933 12.5623526,22.4006963 4.4585552,24.0619881 1.5972934,27.0245807 2.2572769,78.8832842"/>
            <polyline
                style="fill:none;stroke-width:0.226661"
                id="7E8D8AE3"
                points="2.2572769,78.8832842 73.1701707,78.8899507 72.8435122,26.4405953 66.7663308,22.5886916 56.4105897,22.5646922 43.3442497,25.5432844 37.6750581,28.1552191 26.1886786,24.4006463 21.6741248,22.5206933 12.5623526,22.4006963 4.4585552,24.0619881 1.5972934,27.0245807 2.2572769,78.8832842"/>
            <path
                style="stroke:none"
                id="C49D8AE3"
                d="M73.9568177,25.8672763 L73.9568177,24.9806318 L73.6074931,24.7086386 C65.945018,18.7301214 47.4814796,22.279366 38.13238,27.3512392 L38.1030474,27.3512392 C28.7432814,22.279366 10.2784097,18.7301214 2.6186012,24.7086386
L2.2692766,24.9806318 L2.2692766,25.8566099 C1.3946318,26.0152726 0,26.4139293 0,27.3499059 L0,80.211251 L32.4045232,80.211251 C33.6271593,81.4405536 35.7244402,82.2525333 38.1123805,82.2525333 C40.4989875,82.2525333 42.5976017,81.4405536 43.8202378,80.211251
L76.224761,80.211251 L76.224761,27.3525725 C76.224761,26.4459285 74.8301292,26.039272 73.9568177,25.8686096 z M37.2044032,74.838052 C32.492521,72.8287689 25.7246902,71.0074811 19.8781697,70.3768302 C18.0916518443,70.178520099 16.2957849808,70.0761534624 14.4983042,70.0701712
C10.2384107,70.0701712 6.6718332,70.7114885 4.0838979,71.9594573 L4.0838979,25.8806093 C11.1623876,20.8900674 28.4846212,24.399313 37.2044032,28.9178667 z M72.1408631,71.9594573 C68.5249535,70.2195008 63.0077581,69.6568482 56.3479246,70.3728303
C50.5014041,71.0034812 43.73224,72.824769 39.0203578,74.8340521 L39.0203578,28.9192 C47.7401398,24.4019796 65.0637067,20.8994005 72.1408631,25.879276 z"/>
            <path
                style="stroke:none"
                id="C79D8AE3"
                d="M41.9696174,33.2497584 L41.9696174,36.5283431 C51.2320525,32.7844367 62.4997708,29.812511 69.1916035,34.5603923 L69.1916035,31.2778077 C63.5597443,27.3125735 51.0440572,29.2045262 41.9696174,33.2497584
z M41.9696174,57.7504792 L41.9696174,61.0277306 C51.2320525,57.2851575 62.4997708,54.3132318 69.1916035,59.0611131 L69.1916035,55.7785285 C63.5597443,51.8132943 51.0440572,53.705247 41.9696174,57.7504792
z M41.9696174,49.5826834 L41.9696174,52.8612681 C51.2320525,49.118695 62.4997708,46.1467693 69.1916035,50.8946506 L69.1916035,47.612066 C63.5597443,43.6468318 51.0440572,45.5387845 41.9696174,49.5826834
z M41.9696174,41.4162209 L41.9696174,44.6948056 C51.2320525,40.9508992 62.4997708,37.9789735 69.1916035,42.7281881 L69.1916035,39.4442702 C63.5597443,35.479036 51.0440572,37.3709887 41.9696174,41.4162209
z M41.9696174,65.918275 L41.9696174,69.1955264 C51.2320525,65.45162 62.4997708,62.4810276 69.1916035,67.2289089 L69.1916035,63.9463243 C63.5597443,59.9810901 51.0440572,61.8730428 41.9696174,65.9169417
z M7.0331575,34.5563924 C13.7263235,29.8085111 24.9927085,32.7804368 34.2564769,36.5230099 L34.2564769,33.2497584 C25.1820371,29.2098594 12.66635,27.3165734 7.0331575,31.2831409 z M7.0331575,55.7785285
L7.0331575,59.0571132 C13.7263235,54.3092319 24.9927085,57.2811576 34.2564769,61.0237307 L34.2564769,57.7504792 C25.1820371,53.705247 12.66635,51.811961 7.0331575,55.7785285 z M7.0331575,47.612066 L7.0331575,50.8893174
C13.7263235,46.1427694 24.9927085,49.1133618 34.2564769,52.8572682 L34.2564769,49.5826834 C25.1820371,45.5387845 12.66635,43.6468318 7.0331575,47.612066 z M7.0331575,39.4456035 L7.0331575,42.7228549 C13.7263235,37.9763069 24.9927085,40.9468993 34.2564769,44.6908057
L34.2564769,41.4162209 C25.1820371,37.372322 12.66635,35.479036 7.0331575,39.4456035 z M7.0331575,63.944991 L7.0331575,67.224909 C13.7263235,62.4756944 24.9927085,65.4476201 34.2564769,69.1915265 L34.2564769,65.9169417
C25.1820371,61.8730428 12.66635,59.9810901 7.0331575,63.9463243 z"/>
            <polyline
                style="fill:none;stroke-width:0.226661"
                id="7A9D8AE3"
                points="1.6692916,74.0620714 1.5652942,35.7176967 2.773264,25.3232899 1.6692916,74.0620714"/>
         </g>
      </g>
   </g>
</svg>
