<?xml version="1.0" encoding="UTF-8"?>
<!-- Created with EazyDraw for Mac ( http://www.eazydraw.com/ ) -->

<svg
    version="1.1"
    xmlns:dc="http://purl.org/dc/elements/1.1/"
    xmlns:cc="http://creativecommons.org/ns#"
    xmlns:rdf="http://www.w3.org/1999/02/22-rdf-syntax-ns#"
    xmlns:svg="http://www.w3.org/2000/svg"
    xmlns:xlink="http://www.w3.org/1999/xlink"
    xmlns="http://www.w3.org/2000/svg"
    width="336"
    height="267.440028962"
    viewBox="0, 0, 336, 267.440028962"
    preserveAspectRatio="none"
    id="svg2">
   <defs
       id="defs_AF0E2E43"/>
   <metadata
       id="metadata7">
      <rdf:RDF>
         <cc:Work
             rdf:about="">
            <dc:format>image/svg+xml</dc:format>
            <dc:type rdf:resource="http://purl.org/dc/dcmitype/StillImage"/>
            <dc:title></dc:title>
         </cc:Work>
      </rdf:RDF>
   </metadata>
   <g
       id="layer_Paper"
       style="fill:#000000;fill-opacity:1;stroke:#000000;stroke-opacity:1;fill-rule:nonzero;stroke-linecap:square;stroke-linejoin:miter;stroke-width:1;stroke-miterlimit:10">
      <path
          style="stroke:none"
          id="062D6D43"
          d="M326,18.9000289616 L326,14.9900289616 L324.46,13.7900289616 C290.69,-12.5599710384 209.3,3.080028961614 168.09,25.4400289616 L168.09,25.4400289616 L167.96,25.4400289616 L167.96,25.4400289616 C126.7,3.080028961614 45.31,-12.5599710384 11.54,13.7900289616
L10,14.9900289616 L10,18.8500289616 C6.15,19.5500289616 0,21.3100289616 0,25.4400289616 L0,25.4400289616 L0,258.440028962 L142.84,258.440028962 C148.23,263.860028962 157.48,267.440028962 168,267.440028962
C178.52,267.440028962 187.77,263.860028962 193.16,258.440028962 L336,258.440028962 L336,25.4400289616 C336,21.4400289616 329.85,19.6500289616 326,18.9000289616 z M164,234.760028962 C143.23,225.900028962 113.39,217.870028962 87.62,215.090028962
C79.7465390928,214.21582837 71.8318041378,213.765179185 63.91,213.740028962 C45.13,213.740028962 29.41,216.570028962 18,222.070028962 L18,18.9500289616 C49.2,-3.049971038386 125.56,12.4200289616 164,32.3400289616
z M318,222.070028962 C302.06,214.400028962 277.74,211.920028962 248.38,215.070028962 C222.61,217.850028962 192.77,225.880028962 172,234.740028962 L172,32.3500289616 C210.44,12.4400289616 286.8,-2.999971038386 318,18.9500289616
z"/>
      <path
          style="stroke:none"
          id="192D6D43"
          d="M185,51.4400289616 L185,65.8900289616 C225.83,49.3900289616 275.5,36.2900289616 305,57.2200289616 L305,42.7500289616 C280.17,25.2700289616 225,33.6100289616 185,51.4400289616 z"/>
      <path
          style="stroke:none"
          id="4B2D6D43"
          d="M185,159.440028962 L185,173.890028962 C225.83,157.390028962 275.5,144.290028962 305,165.220028962 L305,150.750028962 C280.17,133.270028962 225,141.610028962 185,159.440028962 z"/>
      <path
          style="stroke:none"
          id="4D2D6D43"
          d="M185,123.440028962 L185,137.890028962 C225.83,121.390028962 275.5,108.290028962 305,129.220028962 L305,114.750028962 C280.17,97.2700289616 225,105.610028962 185,123.440028962 z"/>
      <path
          style="stroke:none"
          id="3F2D6D43"
          d="M185,87.4400289616 L185,101.890028962 C225.83,85.3900289616 275.5,72.2900289616 305,93.2200289616 L305,78.7500289616 C280.17,61.2700289616 225,69.6100289616 185,87.4400289616 z"/>
      <path
          style="stroke:none"
          id="613D6D43"
          d="M185,195.440028962 L185,209.890028962 C225.83,193.390028962 275.5,180.290028962 305,201.220028962 L305,186.750028962 C280.17,169.270028962 225,177.610028962 185,195.440028962 z"/>
      <path
          style="stroke:none"
          id="933D6D43"
          d="M31,57.2000289616 C60.5,36.2700289616 110.17,49.3700289616 151,65.8700289616 L151,51.4400289616 C111,33.6300289616 55.83,25.2900289616 31,42.7700289616 z"/>
      <path
          style="stroke:none"
          id="263D6D43"
          d="M31,150.750028962 L31,165.200028962 C60.5,144.270028962 110.17,157.370028962 151,173.870028962 L151,159.440028962 C111,141.610028962 55.83,133.270028962 31,150.750028962 z"/>
      <path
          style="stroke:none"
          id="1A3D6D43"
          d="M31,114.750028962 L31,129.200028962 C60.5,108.270028962 110.17,121.370028962 151,137.870028962 L151,123.440028962 C111,105.610028962 55.83,97.2700289616 31,114.750028962 z"/>
      <path
          style="stroke:none"
          id="FB3D6D43"
          d="M31,78.7500289616 L31,93.2000289616 C60.5,72.2700289616 110.17,85.3700289616 151,101.870028962 L151,87.4400289616 C111,69.6100289616 55.83,61.2700289616 31,78.7500289616 z"/>
      <path
          style="stroke:none"
          id="DD3D6D43"
          d="M31,186.750028962 L31,201.200028962 C60.5,180.270028962 110.17,193.370028962 151,209.870028962 L151,195.440028962 C111,177.610028962 55.83,169.270028962 31,186.750028962 z"/>
   </g>
</svg>
